ply
format ascii 1.0
comment Exported by Aspose.3D 22.10
element vertex 677
property float x
property float y
property float z
element face 1050
property list uchar int vertex_index
end_header
0.0992 0.0571 0.0335
0.0759 0.0373 0.0035
0.0892 0.071 0.0035
0.0802 0.0317 0.0165
0.0919 0.0393 0.0335
0.084 0.0247 0.0335
0.0712 -0.0099 0.0265
0.0756 -0.0075 0.0335
0.0645 0.0001 0.0035
0.0732 0.0278 0.0035
0.0686 -0.0113 0.0035
0.1504 0.0432 0.0035
0.1702 0.0198 0.0035
0.1487 0.0422 0.0335
0.1693 0.0193 0.0335
0.074 -0.0129 0.0335
0.084 -0.0371 0.0335
0.0748 -0.0433 0.0035
0.0973 -0.0652 0.0335
0.1092 -0.0929 0.0335
0.0965 0.0064 0.0575
0.116 0.031 0.0635
0.1056 0.0126 0.0635
0.105 0.0488 0.0435
0.1465 0.0399 0.0435
0.1649 0.0169 0.0635
0.1575 0.0242 0.0635
0.1265 0.0265 0.0635
0.0998 0.0025 0.0635
0.0884 -0.0347 0.0595
0.0922 -0.0314 0.0635
0.1882 -0.0045 0.0335
0.1847 -0.0064 0.0635
0.0903 -0.0382 0.0635
0.102 -0.0614 0.0635
0.1157 -0.0881 0.0635
0.1212 0.0236 0.0645
0.1628 0.0146 0.0665
0.1384 -0.0012 0.0685
0.1131 -0.0175 0.0665
0.18 -0.0102 0.0705
0.1547 -0.0265 0.0715
0.1294 -0.0428 0.0695
0.1047 -0.0599 0.0675
0.2028 -0.0307 0.0635
0.1958 -0.0346 0.0715
0.171 -0.0518 0.0735
0.1457 -0.068 0.0865
0.1218 -0.0847 0.0715
0.1381 -0.11 0.0745
0.1294 -0.1148 0.0635
0.2308 -0.2999 0.1235
0.2317 -0.2994 0.0935
0.2523 -0.3222 0.0935
0.2523 -0.3222 0.1235
0.2743 -0.3432 0.0935
0.2734 -0.3437 0.1235
0.2953 -0.3647 0.0935
0.2944 -0.3652 0.1235
0.0737 -0.068 0.0035
0.0794 -0.0762 0.0075
0.0966 -0.101 0.0155
0.2223 -0.2908 0.1235
0.2219 -0.29 0.0935
-0.1579 -0.0443 0.0035
-0.1431 -0.0441 0.0335
-0.1569 -0.046 0.0335
-0.1361 -0.0402 0.0035
-0.1879 -0.054 0.0035
-0.1865 -0.0544 0.0335
-0.1303 -0.0713 0.0035
-0.1303 -0.0713 0.0335
-0.147 -0.0474 0.0635
-0.1554 -0.0486 0.0635
-0.1856 -0.0562 0.0635
-0.1294 -0.0708 0.0635
-0.1531 -0.0508 0.0865
-0.1557 -0.0522 0.0935
-0.1836 -0.0597 0.0935
-0.1303 -0.0713 0.0935
-0.1526 -0.0516 0.0935
-0.167 -0.0608 0.1235
-0.1817 -0.0632 0.1235
-0.1307 -0.0726 0.1235
-0.1497 -0.0569 0.1235
-0.1096 -0.0941 0.0035
-0.0916 -0.1184 0.0035
-0.1096 -0.0941 0.0335
-0.0925 -0.1189 0.0335
-0.0885 -0.1487 0.0335
-0.0895 -0.147 0.0035
0.0755 -0.0795 0.0035
-0.0751 -0.1688 0.0035
-0.0616 -0.1704 0.0335
-0.0818 -0.1587 0.0335
-0.0669 -0.1733 0.0035
0.0839 -0.1092 0.0035
-0.0345 -0.1885 0.0035
-0.0306 -0.1852 0.0335
0.1128 -0.1263 0.0215
0.0937 -0.1392 0.0035
-0.0226 -0.1934 0.0035
0.001 -0.2009 0.0335
-0.0269 -0.1877 0.0335
-0.0016 -0.2023 0.0035
0.1047 -0.1674 0.0115
0.101 -0.1626 0.0035
0.1291 -0.1516 0.0275
0.1009 -0.1707 0.0035
0.0285 -0.2154 0.0035
0.0312 -0.2162 0.0335
0.0285 -0.2154 0.0335
0.0312 -0.2162 0.0035
0.1158 -0.1853 0.0335
0.1119 -0.1988 0.0335
0.0993 -0.207 0.0035
0.0705 -0.2252 0.0035
0.0736 -0.2246 0.0035
0.071 -0.2261 0.0075
0.0675 -0.228 0.0335
0.1044 -0.2224 0.0335
0.0982 -0.2133 0.0035
0.0743 -0.23 0.0335
-0.1079 -0.0932 0.0635
-0.0886 -0.1156 0.0635
-0.0871 -0.1514 0.0435
-0.0814 -0.1471 0.0635
-0.0508 -0.1632 0.0635
-0.0288 -0.1842 0.0385
-0.0179 -0.1771 0.0635
-0.0384 -0.169 0.0635
0.0127 -0.1932 0.0575
0.0158 -0.1904 0.0635
0.0098 -0.188 0.0635
0.0464 -0.2066 0.0635
0.1444 -0.1728 0.0335
0.121 -0.1926 0.0425
0.1463 -0.1763 0.0345
0.071 -0.2261 0.0425
0.0792 -0.2204 0.0635
0.0638 -0.2152 0.0635
0.1096 -0.2298 0.0635
-0.1088 -0.0936 0.0935
-0.0886 -0.1156 0.0935
-0.0797 -0.1461 0.0935
-0.0516 -0.1637 0.0935
-0.0214 -0.179 0.0935
-0.0375 -0.1707 0.0935
0.0127 -0.1932 0.0795
0.0101 -0.1947 0.0935
0.0429 -0.2085 0.0935
0.016 -0.1971 0.0935
0.0775 -0.2213 0.0935
0.0648 -0.217 0.0935
0.1116 -0.2333 0.0935
-0.1096 -0.0941 0.1235
-0.0899 -0.1175 0.1235
-0.0797 -0.1461 0.1235
-0.0534 -0.1647 0.1235
-0.0218 -0.1804 0.1235
-0.0365 -0.1725 0.1235
0.0084 -0.1956 0.1235
0.0403 -0.2099 0.1235
0.0175 -0.1997 0.1235
0.0762 -0.2232 0.1235
0.0671 -0.2191 0.1235
-0.0451 -0.159 0.1535
0.0127 -0.1932 0.1385
0.0175 -0.1894 0.1535
0.0084 -0.1853 0.1535
-0.0197 -0.178 0.1535
0.0399 -0.2113 0.1535
0.0736 -0.2246 0.1535
0.069 -0.2226 0.1535
0.1601 -0.2384 0.0635
0.1401 -0.2209 0.0635
0.1373 -0.2179 0.0605
0.1798 -0.2264 0.0425
0.1626 -0.2016 0.0405
0.1273 -0.2246 0.0635
0.1834 -0.2598 0.0635
0.1961 -0.2517 0.0505
0.2071 -0.2798 0.0635
0.2127 -0.2756 0.0575
0.1589 -0.2403 0.0935
0.1416 -0.2235 0.0935
0.1191 -0.2303 0.0935
0.1826 -0.2603 0.0935
0.2071 -0.2798 0.0935
0.2223 -0.2908 0.0635
0.1562 -0.2417 0.1235
0.1497 -0.2362 0.1235
0.1125 -0.2351 0.1025
0.1154 -0.2381 0.1235
0.1099 -0.2365 0.1235
0.1826 -0.2603 0.1235
0.2062 -0.2803 0.1235
0.1545 -0.2427 0.1415
0.1493 -0.2456 0.1535
0.1173 -0.2416 0.1535
0.1073 -0.238 0.1535
0.1791 -0.2622 0.1535
0.1569 -0.2471 0.1535
0.2071 -0.2798 0.1535
0.2223 -0.2908 0.1535
-0.2485 -0.0705 0.0035
-0.2286 -0.0652 0.0335
-0.248 -0.0714 0.0335
-0.2269 -0.0642 0.0035
-0.218 -0.0616 0.0035
-0.218 -0.0616 0.0335
-0.2369 -0.0709 0.0635
-0.2471 -0.0731 0.0635
-0.2161 -0.0651 0.0635
-0.2442 -0.0761 0.0845
-0.2438 -0.077 0.0935
-0.2146 -0.0677 0.0935
-0.246 -0.0771 0.0935
-0.2394 -0.0849 0.1235
-0.2113 -0.0716 0.1235
-0.2528 0.3147 -0.1335
-0.228 0.3319 -0.1305
-0.2356 0.2899 -0.1325
-0.2109 0.3071 -0.1285
-0.2781 0.2984 -0.1355
-0.2609 0.2737 -0.1375
-0.2446 0.2484 -0.1375
-0.2198 0.2655 -0.1325
-0.2862 0.2574 -0.1395
-0.2699 0.2321 -0.1385
-0.2275 0.2236 -0.1375
-0.2027 0.2408 -0.1305
-0.2527 0.2073 -0.1385
-0.2112 0.1983 -0.1375
-0.1864 0.2155 -0.1285
-0.2364 0.182 -0.1385
-0.2775 0.1901 -0.1395
-0.2612 0.1649 -0.1395
-0.2193 0.1573 -0.1385
-0.1949 0.1731 -0.1365
-0.2445 0.141 -0.1395
-0.1448 0.2065 -0.1285
-0.12 0.2237 -0.1335
-0.2693 0.1238 -0.1375
-0.1276 0.1817 -0.1325
-0.1029 0.1989 -0.1355
-0.1113 0.1565 -0.1335
-0.0866 0.1736 -0.1365
-0.1529 0.1654 -0.1325
-0.1366 0.1402 -0.1325
-0.1777 0.1483 -0.1365
-0.1619 0.1239 -0.1375
-0.203 0.132 -0.1395
-0.1867 0.1067 -0.1395
-0.2282 0.1157 -0.1395
-0.2111 0.0909 -0.1395
-0.253 0.0985 -0.1395
-0.2359 0.0737 -0.1395
-0.2783 0.0822 -0.1375
-0.2611 0.0574 -0.1395
-0.0947 0.1326 -0.1185
-0.0703 0.1484 -0.1375
-0.0977 0.1297 -0.1165
-0.1257 0.1245 -0.1165
-0.1412 0.101 -0.1165
-0.1447 0.0991 -0.1195
-0.1695 0.0819 -0.1395
-0.1948 0.0656 -0.1405
-0.2196 0.0485 -0.1395
-0.2448 0.0322 -0.1415
-0.0692 0.1135 -0.1165
-0.0932 0.1299 -0.1165
-0.0531 0.1236 -0.1375
-0.1438 0.0973 -0.1165
-0.1402 0.0662 -0.1165
-0.1532 0.0567 -0.1375
-0.1785 0.0404 -0.1385
-0.2037 0.0241 -0.1395
-0.2277 0.0074 -0.1395
-0.0468 0.0916 -0.1165
-0.0368 0.0983 -0.1355
-0.136 0.0319 -0.1245
-0.1339 0.0342 -0.1165
-0.1613 0.0156 -0.1385
-0.1866 -0.0007 -0.1325
-0.2114 -0.0179 -0.1415
-0.0297 0.0668 -0.1165
-0.0196 0.0735 -0.1315
-0.1703 -0.026 -0.1205
-0.145 -0.0097 -0.1375
-0.1951 -0.0431 -0.1275
-0.0358 0.0429 -0.1165
-0.0286 0.032 -0.1275
-0.0033 0.0483 -0.1325
-0.1531 -0.0508 -0.1385
-0.1278 -0.0345 -0.1205
-0.1779 -0.0679 -0.1265
-0.0114 0.0072 -0.1315
0.0138 0.0235 -0.1315
-0.1245 -0.0406 -0.1165
-0.1194 -0.0641 -0.1165
-0.1368 -0.076 -0.1365
-0.1616 -0.0932 -0.1285
-0.1197 -0.1008 -0.1165
-0.0959 0.1307 -0.0865
-0.1261 0.1254 -0.0865
-0.1447 0.0991 -0.0865
-0.1447 0.0991 -0.0975
-0.1456 0.0986 -0.0865
-0.074 0.1097 -0.0865
-0.0942 0.1317 -0.0865
-0.1349 0.0691 -0.0865
-0.0551 0.0859 -0.0865
-0.1287 0.0371 -0.0865
-0.0379 0.0611 -0.0865
-0.041 0.0502 -0.0865
-0.1116 -0.0597 -0.1115
-0.1059 0.124 -0.0565
-0.1242 0.1219 -0.0565
-0.1447 0.0991 -0.0785
-0.1368 0.1035 -0.0565
-0.0766 0.1083 -0.0565
-0.0903 0.1247 -0.0565
-0.1428 0.0956 -0.0565
-0.1311 0.0724 -0.0565
-0.0595 0.0835 -0.0565
-0.1156 0.0466 -0.0565
-0.0598 0.0799 -0.0565
-0.0449 0.0572 -0.0795
-0.1326 0.0258 -0.0865
-0.1202 0.0075 -0.0765
-0.1294 0.0013 -0.0865
-0.1779 -0.0679 -0.0565
-0.1784 -0.0671 -0.0565
-0.1368 -0.076 -0.0605
-0.1333 -0.0741 -0.0565
-0.1383 -0.0734 -0.0565
-0.1616 -0.0932 -0.0655
-0.1195 0.1154 -0.0555
-0.0784 0.1073 -0.0545
-0.1032 0.0901 -0.0525
-0.1284 0.0738 -0.0535
-0.0621 0.082 -0.0535
-0.0869 0.0649 -0.0525
-0.1113 0.049 -0.0525
-0.0667 0.0429 -0.0565
-0.0697 0.0401 -0.0525
-0.095 0.0238 -0.0535
-0.0976 0.0223 -0.0565
-0.0678 0.0366 -0.0565
-0.0935 0.0212 -0.0565
-0.1531 -0.0508 -0.0275
-0.1331 -0.0374 -0.0265
-0.1584 -0.0434 -0.0265
-0.1879 -0.054 -0.0265
-0.1307 -0.0726 -0.0265
0.0454 -0.0253 -0.1165
0.0459 -0.0262 -0.1165
0.0211 -0.0434 -0.1345
0.0296 -0.0009 -0.1285
0.0048 -0.0181 -0.1335
-0.1286 -0.1424 -0.1325
-0.1449 -0.1171 -0.1365
-0.1205 -0.1013 -0.1165
-0.1042 -0.1266 -0.1165
-0.1425 -0.1524 -0.1165
0.0383 -0.0681 -0.1335
0.0531 -0.0577 -0.1165
-0.1241 -0.1753 -0.1165
-0.1123 -0.1676 -0.1265
0.0546 -0.0934 -0.1335
0.0664 -0.0857 -0.1165
-0.0952 -0.1924 -0.1195
0.0628 -0.1598 -0.1255
0.0876 -0.1426 -0.1195
0.0909 -0.1465 -0.1165
0.0738 -0.1754 -0.1165
0.0445 -0.0236 -0.0865
0.0459 -0.0262 -0.0865
-0.1034 -0.1261 -0.1155
0.0566 -0.0557 -0.0865
0.0676 -0.0839 -0.0865
0.0757 -0.1789 -0.0865
0.0938 -0.1517 -0.0865
-0.0508 -0.2353 -0.0865
-0.0561 -0.2382 -0.1165
-0.0268 -0.2415 -0.1165
-0.0231 -0.2462 -0.0865
0.071 -0.2261 -0.1085
0.0547 -0.2008 -0.0945
0.0699 -0.1912 -0.0865
0.0884 -0.2142 -0.0865
0.0557 -0.2357 -0.0865
0.0464 -0.2066 -0.0865
0.0209 -0.2596 -0.1055
0.0089 -0.2399 -0.1165
0.0073 -0.2328 -0.1165
0.0283 -0.2543 -0.0865
0.022 -0.2224 -0.0865
0.0048 -0.2696 -0.0865
-0.0006 -0.2372 -0.1165
-0.0189 -0.2496 -0.0865
0.0267 -0.2678 -0.0865
0.0459 -0.0262 -0.0565
0.0566 -0.0557 -0.0565
-0.1034 -0.1261 -0.0685
-0.0947 -0.1396 -0.0565
-0.0942 -0.1199 -0.0565
0.0655 -0.0862 -0.0565
0.0847 -0.1373 -0.0565
0.0863 -0.1444 -0.0565
0.0876 -0.1426 -0.0655
-0.0364 -0.2262 -0.0725
-0.0308 -0.2219 -0.0565
-0.0493 -0.207 -0.0565
0.0865 -0.1798 -0.0565
0.08 -0.1845 -0.0755
0.0151 -0.1954 -0.0865
0.0329 -0.2152 -0.0565
0.0194 -0.2032 -0.0565
0.0138 -0.2281 -0.0565
-0.0006 -0.2372 -0.0565
0.0862 -0.1937 -0.0565
0.0928 -0.2117 -0.0565
0.0527 -0.2385 -0.0565
0.0094 -0.2408 -0.0565
0.0209 -0.2596 -0.0755
0.0459 -0.0262 -0.0555
-0.1131 -0.0961 -0.0565
-0.1105 -0.0946 -0.0265
-0.096 -0.1208 -0.0265
0.0564 -0.041 -0.0265
0.0601 -0.0538 -0.0265
-0.0924 -0.1417 -0.0265
0.0694 -0.0829 -0.0265
-0.0536 -0.2014 -0.0475
-0.0388 -0.1909 -0.0265
-0.068 -0.1796 -0.0265
0.0876 -0.1426 -0.0455
-0.0117 -0.209 -0.0295
0.001 -0.2009 -0.0265
-0.0197 -0.1986 -0.0265
-0.0562 -0.2029 -0.0565
0.0928 -0.15 -0.0265
0.0939 -0.1745 -0.0265
0.0355 -0.2137 -0.0265
0.0194 -0.2032 -0.0265
0.0046 -0.2343 -0.0475
0.0929 -0.2037 -0.0265
0.0862 -0.2165 -0.0265
0.0636 -0.2313 -0.0265
0.0786 -0.2379 -0.0265
0.0631 -0.051 -0.0165
-0.0699 -0.1761 -0.0145
0.0792 -0.113 -0.0265
0.0963 -0.2098 -0.0085
0.071 -0.2261 0.0025
0.1069 -0.3342 -0.0865
0.1218 -0.3363 -0.0865
0.1379 -0.3262 -0.0705
0.0963 -0.3172 -0.0775
0.1207 -0.3014 -0.0645
0.0882 -0.2509 -0.0295
0.1044 -0.2762 -0.0425
0.1118 -0.2709 -0.0565
0.1038 -0.2399 -0.0565
0.072 -0.261 -0.0565
0.0962 -0.2819 -0.0565
0.114 -0.2914 -0.0565
-0.2949 -0.0013 -0.1435
-0.2701 0.0159 -0.1425
-0.2777 -0.0261 -0.1425
-0.2529 -0.0089 -0.1405
-0.2614 -0.0513 -0.1435
-0.2366 -0.0342 -0.1435
-0.303 -0.0424 -0.1445
-0.2867 -0.0676 -0.1415
-0.2442 -0.0761 -0.1375
-0.2203 -0.0594 -0.1365
-0.2695 -0.0924 -0.1395
-0.2284 -0.1005 -0.1425
-0.2032 -0.0842 -0.1445
-0.2532 -0.1177 -0.1385
-0.2948 -0.1087 -0.1375
-0.2785 -0.134 -0.1355
-0.2121 -0.1258 -0.1405
-0.1869 -0.1095 -0.1315
-0.2361 -0.1425 -0.1415
-0.2613 -0.1588 -0.1415
-0.3033 -0.1512 -0.1305
-0.2861 -0.1759 -0.1415
-0.2032 -0.0842 -0.0595
-0.2304 -0.097 -0.0565
-0.2284 -0.1005 -0.0605
-0.2046 -0.0816 -0.0565
-0.2589 -0.1094 -0.0565
-0.2532 -0.1177 -0.0615
-0.2913 -0.1068 -0.0565
-0.2948 -0.1087 -0.0575
-0.2785 -0.134 -0.0625
-0.2121 -0.1258 -0.0645
-0.1869 -0.1095 -0.0635
-0.2361 -0.1425 -0.0645
-0.2613 -0.1588 -0.0655
-0.3033 -0.1512 -0.0625
-0.2861 -0.1759 -0.0665
-0.2442 -0.0761 -0.0275
-0.2286 -0.0652 -0.0265
-0.2495 -0.0687 -0.0265
-0.2795 -0.0785 -0.0265
-0.2695 -0.0924 -0.0315
-0.217 -0.0633 -0.0265
-0.195 -0.1506 -0.1355
-0.1697 -0.1343 -0.1185
-0.1678 -0.1378 -0.1165
-0.1811 -0.1715 -0.1165
-0.1804 -0.1768 -0.1165
-0.2035 -0.193 -0.1395
-0.2198 -0.1677 -0.1365
-0.245 -0.184 -0.1375
-0.2287 -0.2093 -0.1405
-0.2698 -0.2012 -0.1415
-0.2531 -0.2251 -0.1405
-0.2951 -0.2175 -0.1395
-0.2779 -0.2423 -0.1405
-0.1615 -0.2006 -0.1285
-0.1759 -0.1789 -0.1165
-0.1471 -0.1915 -0.1165
-0.1868 -0.2169 -0.1385
-0.2116 -0.2341 -0.1385
-0.2368 -0.2504 -0.1355
-0.2616 -0.2675 -0.1395
-0.3032 -0.2586 -0.1365
-0.2869 -0.2838 -0.1385
-0.1291 -0.1952 -0.1165
-0.12 -0.2096 -0.1285
-0.1452 -0.2259 -0.1225
-0.1705 -0.2422 -0.1305
-0.1953 -0.2594 -0.1335
-0.2205 -0.2757 -0.1345
-0.2453 -0.2928 -0.1355
-0.2697 -0.3086 -0.1355
-0.1281 -0.2507 -0.1175
-0.1041 -0.234 -0.1305
-0.2034 -0.3004 -0.1365
-0.1781 -0.2841 -0.1305
-0.2282 -0.3176 -0.1395
-0.2534 -0.3339 -0.1345
-0.2717 -0.3463 -0.1165
-0.2859 -0.3393 -0.1165
-0.295 -0.3249 -0.1295
-0.0884 -0.2562 -0.1165
-0.0944 -0.264 -0.1165
-0.1118 -0.2759 -0.1215
-0.2236 -0.3505 -0.1165
-0.24 -0.3539 -0.1165
-0.2124 -0.342 -0.1265
-0.0783 -0.2723 -0.1165
-0.0707 -0.284 -0.1205
-0.0955 -0.3012 -0.1255
-0.1787 -0.1758 -0.1145
-0.1534 -0.1595 -0.1105
-0.2035 -0.193 -0.0925
-0.1996 -0.1897 -0.0865
-0.2054 -0.1895 -0.0865
-0.2087 -0.1959 -0.0865
-0.1364 0.3564 -0.1315
-0.1116 0.3736 -0.1225
-0.1192 0.3316 -0.1325
-0.0945 0.3488 -0.1195
-0.1617 0.3401 -0.1335
-0.1445 0.3153 -0.1335
-0.103 0.3063 -0.1335
-0.0782 0.3235 -0.1205
-0.1282 0.29 -0.1345
-0.0858 0.2815 -0.1345
-0.0619 0.2982 -0.1215
-0.1111 0.2653 -0.1355
-0.0366 0.3145 -0.1225
-0.0447 0.2734 -0.1225
-0.0194 0.2897 -0.1235
-0.0695 0.2563 -0.1355
-0.0948 0.24 -0.1365
-0.0284 0.2482 -0.1225
-0.0031 0.2645 -0.1225
-0.0112 0.2234 -0.1245
0.0135 0.2406 -0.1235
-0.0537 0.2319 -0.1335
-0.0365 0.2071 -0.1325
-0.0776 0.2152 -0.1365
-0.0613 0.1899 -0.1365
0.005 0.1981 -0.1295
0.0298 0.2153 -0.1305
-0.0202 0.1818 -0.1315
-0.045 0.1647 -0.1365
0.0222 0.1733 -0.1315
0.0461 0.19 -0.1315
-0.0031 0.157 -0.1325
-0.0278 0.1399 -0.1325
0.0385 0.1481 -0.1335
0.0633 0.1652 -0.1335
0.0132 0.1318 -0.1345
-0.012 0.1155 -0.1295
0.0886 0.1815 -0.1375
0.0796 0.14 -0.1345
0.1049 0.1563 -0.1375
0.0548 0.1228 -0.1335
0.0304 0.107 -0.1345
0.0051 0.0907 -0.1325
0.0968 0.1152 -0.1335
0.122 0.1315 -0.1375
0.0715 0.0989 -0.1275
0.0467 0.0817 -0.1315
0.0214 0.0654 -0.1305
0.1131 0.0899 -0.1315
0.1378 0.1071 -0.1375
0.0965 0.0785 -0.1165
0.0811 0.0836 -0.1165
0.0686 0.0607 -0.1165
0.063 0.0565 -0.1205
0.0377 0.0402 -0.1265
0.126 0.0708 -0.1165
0.0658 0.0534 -0.1165
0.0534 0.018 -0.1165
0.0969 0.0798 -0.0865
0.0787 0.088 -0.0865
0.0651 0.0588 -0.0865
0.126 0.0708 -0.0865
0.0648 0.0552 -0.0865
0.053 0.0189 -0.0865
0.0965 0.0785 -0.0565
0.0792 0.0871 -0.0565
0.0651 0.0588 -0.0565
0.1264 0.0699 -0.0565
0.0648 0.0552 -0.0565
0.0534 0.018 -0.0565
0.0904 0.0751 -0.0265
0.0839 0.0806 -0.0265
0.0756 0.0646 -0.0265
0.0678 0.0499 -0.0265
0.0878 0.0736 -0.0035
0.1704 0.0565 -0.1165
0.1341 0.0684 -0.1165
0.1541 0.0818 -0.1335
0.1713 0.057 -0.1175
0.0523 0.0139 -0.1165
0.202 0.0409 -0.1165
0.1718 0.0562 -0.1165
0.2129 0.0481 -0.1315
0.1966 0.0733 -0.1385
0.23 0.0233 -0.1165
0.1341 0.0684 -0.0865
0.1692 0.0547 -0.0865
0.0523 0.0139 -0.0865
0.1732 0.0535 -0.0865
0.1967 0.038 -0.0865
0.2213 0.0184 -0.0865
0.1332 0.0679 -0.0565
0.1674 0.0537 -0.0565
0.0523 0.0139 -0.0565
0.1747 0.0509 -0.0565
0.1911 0.0337 -0.0565
0.2191 0.0161 -0.0565
0.1302 0.0651 -0.0325
0.1583 0.0475 -0.0265
0.1307 0.0643 -0.0265
0.1285 0.0642 -0.0265
0.0549 0.0154 -0.0445
0.0601 0.0183 -0.0265
0.0573 0.011 -0.0265
0.0586 -0.018 -0.0265
0.1876 0.0318 -0.0525
0.1702 0.0198 -0.0265
0.2396 0.008 -0.0565
0.2048 0.007 -0.0495
0.2463 -0.002 -0.0525
0.2211 -0.0183 -0.0515
3 4 0 3
3 0 1 3
3 0 2 1
3 9 3 1
3 4 23 0
3 5 4 3
3 7 5 6
3 6 5 8
3 5 3 8
3 3 9 8
3 10 6 8
3 13 12 11
3 14 12 13
3 15 7 6
3 6 10 15
3 10 16 15
3 10 17 16
3 17 59 60
3 18 17 60
3 16 17 18
3 18 60 61
3 18 61 19
3 22 21 20
3 20 21 5
3 21 23 5
3 23 4 5
3 7 20 5
3 26 25 24
3 25 13 24
3 25 14 13
3 26 24 27
3 28 22 20
3 30 28 29
3 29 28 15
3 28 20 15
3 20 7 15
3 16 29 15
3 25 31 14
3 32 31 25
3 33 30 29
3 29 16 33
3 16 34 33
3 16 18 34
3 19 34 18
3 19 35 34
3 36 27 21
3 22 36 21
3 27 36 26
3 36 37 26
3 36 38 37
3 28 39 22
3 39 36 22
3 39 38 36
3 30 39 28
3 40 32 37
3 37 32 25
3 41 37 38
3 40 37 41
3 42 38 39
3 41 38 42
3 33 43 30
3 43 39 30
3 43 42 39
3 34 43 33
3 45 44 40
3 40 44 32
3 46 40 41
3 45 40 46
3 47 41 42
3 46 41 47
3 48 42 43
3 47 42 48
3 35 48 34
3 34 48 43
3 50 49 35
3 35 49 48
3 62 51 63
3 63 51 52
3 51 53 52
3 54 53 51
3 54 55 53
3 56 55 54
3 56 57 55
3 58 57 56
3 66 65 64
3 64 65 67
3 69 64 68
3 69 66 64
3 210 68 209
3 210 69 68
3 65 70 67
3 71 70 65
3 71 85 70
3 87 85 71
3 73 72 66
3 66 72 65
3 74 66 69
3 74 73 66
3 213 69 210
3 213 74 69
3 72 71 65
3 75 71 72
3 75 87 71
3 123 87 75
3 76 72 73
3 76 73 77
3 73 78 77
3 73 74 78
3 216 74 213
3 216 78 74
3 80 79 76
3 79 72 76
3 79 75 72
3 80 76 77
3 79 123 75
3 142 123 79
3 82 81 78
3 78 81 77
3 219 78 216
3 219 82 78
3 84 83 80
3 80 83 79
3 80 77 81
3 80 81 84
3 83 142 79
3 155 142 83
3 87 86 85
3 88 86 87
3 88 89 86
3 86 89 90
3 91 60 59
3 94 93 92
3 92 93 95
3 96 61 91
3 91 61 60
3 93 97 95
3 98 97 93
3 100 99 96
3 96 99 61
3 103 102 101
3 101 102 104
3 101 97 98
3 101 98 103
3 106 105 100
3 105 99 100
3 105 107 99
3 108 105 106
3 111 110 109
3 109 110 112
3 109 104 102
3 109 102 111
3 105 108 113
3 108 114 113
3 108 115 114
3 118 117 116
3 119 118 116
3 112 119 116
3 110 119 112
3 120 114 115
3 120 115 121
3 121 117 118
3 122 121 118
3 120 121 122
3 122 118 119
3 123 88 87
3 124 88 123
3 89 88 125
3 88 126 125
3 88 124 126
3 125 126 94
3 126 93 94
3 126 127 93
3 130 129 128
3 127 130 128
3 98 127 128
3 93 127 98
3 133 132 131
3 133 131 129
3 129 131 128
3 131 102 128
3 102 103 128
3 128 103 98
3 131 132 111
3 132 110 111
3 132 134 110
3 131 111 102
3 113 136 135
3 135 136 137
3 114 136 113
3 140 139 138
3 134 140 138
3 119 134 138
3 110 134 119
3 176 137 136
3 178 137 176
3 176 136 114
3 141 176 114
3 120 141 114
3 179 176 141
3 122 138 139
3 141 122 139
3 120 122 141
3 138 122 119
3 142 124 123
3 143 124 142
3 143 126 124
3 144 126 143
3 144 127 126
3 145 127 144
3 147 146 130
3 130 146 129
3 130 127 145
3 130 145 147
3 148 132 133
3 149 148 133
3 129 149 133
3 146 149 129
3 151 150 148
3 150 132 148
3 150 134 132
3 151 148 149
3 153 152 140
3 140 152 139
3 140 134 150
3 140 150 153
3 154 186 141
3 141 186 179
3 141 139 152
3 141 152 154
3 155 143 142
3 156 143 155
3 156 144 143
3 157 144 156
3 157 145 144
3 158 145 157
3 160 159 147
3 147 159 146
3 147 145 158
3 147 158 160
3 159 149 146
3 161 149 159
3 163 162 151
3 151 162 150
3 151 149 161
3 151 161 163
3 165 164 153
3 153 164 152
3 153 150 162
3 153 162 165
3 192 186 154
3 194 192 154
3 152 194 154
3 164 194 152
3 166 160 158
3 169 168 167
3 170 169 167
3 161 170 167
3 159 170 161
3 167 168 163
3 168 162 163
3 168 171 162
3 167 163 161
3 173 172 165
3 165 172 164
3 165 162 171
3 165 171 173
3 172 194 164
3 200 194 172
3 176 175 174
3 177 176 174
3 178 176 177
3 175 176 179
3 177 174 180
3 177 180 181
3 181 180 182
3 181 182 183
3 185 184 175
3 175 184 174
3 175 179 186
3 175 186 185
3 184 180 174
3 187 180 184
3 187 182 180
3 188 182 187
3 189 182 188
3 189 188 63
3 191 190 185
3 185 190 184
3 185 186 192
3 193 185 192
3 191 185 193
3 193 192 194
3 190 187 184
3 195 187 190
3 195 188 187
3 196 188 195
3 63 188 196
3 63 196 62
3 197 190 191
3 197 191 198
3 191 199 198
3 191 193 199
3 193 194 200
3 193 200 199
3 202 201 197
3 201 190 197
3 201 195 190
3 202 197 198
3 201 196 195
3 203 196 201
3 62 196 203
3 62 203 204
3 207 206 205
3 205 206 208
3 209 208 206
3 209 206 210
3 212 211 207
3 207 211 206
3 210 206 211
3 210 211 213
3 214 211 212
3 213 211 214
3 215 213 214
3 216 213 215
3 215 214 217
3 218 216 215
3 218 219 216
3 222 221 220
3 223 221 222
3 225 220 224
3 222 220 225
3 226 222 225
3 227 222 226
3 229 225 228
3 226 225 229
3 230 227 226
3 231 227 230
3 232 226 229
3 230 226 232
3 233 231 230
3 234 231 233
3 235 230 232
3 233 230 235
3 237 232 236
3 235 232 237
3 238 233 235
3 239 233 238
3 240 235 237
3 238 235 240
3 244 242 241
3 245 242 244
3 252 239 238
3 250 239 252
3 254 238 240
3 252 238 254
3 256 240 243
3 254 240 256
3 246 245 244
3 247 245 246
3 249 244 248
3 246 244 249
3 251 248 250
3 249 248 251
3 253 250 252
3 251 250 253
3 255 252 254
3 253 252 255
3 257 254 256
3 255 254 257
3 259 256 258
3 257 256 259
3 260 247 246
3 261 247 260
3 249 263 262
3 260 249 262
3 246 249 260
3 265 264 263
3 249 265 263
3 251 265 249
3 266 251 253
3 265 251 266
3 267 253 255
3 266 253 267
3 268 255 257
3 267 255 268
3 269 257 259
3 268 257 269
3 269 259 470
3 260 271 270
3 272 260 270
3 261 260 272
3 271 260 262
3 273 264 265
3 275 274 273
3 265 275 273
3 266 275 265
3 276 266 267
3 275 266 276
3 277 267 268
3 276 267 277
3 278 268 269
3 277 268 278
3 472 269 470
3 278 269 472
3 272 270 279
3 272 279 280
3 274 275 281
3 274 281 282
3 283 275 276
3 281 275 283
3 284 276 277
3 283 276 284
3 285 277 278
3 284 277 285
3 474 278 472
3 285 278 474
3 280 279 286
3 280 286 287
3 288 283 284
3 289 283 288
3 290 284 285
3 288 284 290
3 478 285 474
3 290 285 478
3 287 286 291
3 292 287 291
3 293 287 292
3 294 289 288
3 295 289 294
3 296 288 290
3 294 288 296
3 481 290 478
3 296 290 481
3 297 293 292
3 298 293 297
3 301 300 299
3 295 301 299
3 294 301 295
3 302 294 296
3 301 294 302
3 486 296 481
3 302 296 486
3 360 298 297
3 359 298 360
3 362 363 303
3 301 362 303
3 302 362 301
3 513 302 486
3 362 302 513
3 305 304 263
3 263 304 262
3 307 306 264
3 306 263 264
3 306 305 263
3 307 308 306
3 310 309 271
3 271 309 270
3 271 262 304
3 271 304 310
3 273 307 264
3 273 274 307
3 274 308 307
3 274 311 308
3 309 279 270
3 312 279 309
3 282 311 274
3 282 313 311
3 312 286 279
3 314 286 312
3 314 315 286
3 286 315 291
3 300 316 299
3 363 303 303
3 318 317 305
3 305 317 304
3 320 318 319
3 318 306 319
3 318 305 306
3 308 319 306
3 322 321 310
3 310 321 309
3 310 304 317
3 310 317 322
3 323 320 319
3 319 308 323
3 308 324 323
3 308 311 324
3 321 312 309
3 325 312 321
3 313 324 311
3 313 326 324
3 328 314 327
3 314 325 327
3 314 312 325
3 331 330 329
3 328 315 314
3 333 332 332
3 491 494 332
3 332 494 333
3 336 335 334
3 336 334 332
3 334 332 332
3 334 337 332
3 332 501 491
3 332 337 501
3 338 317 318
3 320 338 318
3 339 321 322
3 317 338 322
3 338 339 322
3 338 340 339
3 323 341 320
3 341 338 320
3 341 340 338
3 324 341 323
3 342 325 339
3 339 325 321
3 343 339 340
3 342 339 343
3 344 340 341
3 343 340 344
3 326 344 324
3 324 344 341
3 342 327 325
3 327 342 345
3 342 346 345
3 342 343 346
3 347 343 344
3 346 343 347
3 348 347 326
3 326 347 344
3 346 349 345
3 349 346 350
3 350 346 347
3 350 347 348
3 353 352 351
3 332 333 351
3 333 353 351
3 333 354 353
3 511 333 494
3 511 354 333
3 351 352 336
3 352 335 336
3 352 355 335
3 351 336 332
3 355 428 335
3 429 428 355
3 64 67 353
3 353 67 352
3 68 353 354
3 68 64 353
3 209 354 511
3 209 68 354
3 67 355 352
3 70 355 67
3 70 429 355
3 85 429 70
3 358 357 356
3 359 358 356
3 360 358 359
3 363 362 361
3 363 361 364
3 513 514 365
3 361 513 365
3 362 513 361
3 357 358 366
3 357 366 367
3 361 365 368
3 361 368 369
3 367 366 370
3 367 370 371
3 369 368 534
3 535 369 534
3 372 369 535
3 375 374 373
3 375 373 376
3 356 357 377
3 377 357 378
3 364 379 363
3 363 379 303
3 561 365 514
3 367 378 357
3 367 380 378
3 561 368 365
3 371 380 367
3 371 381 380
3 382 375 376
3 382 383 375
3 386 385 384
3 386 384 387
3 390 389 388
3 390 388 391
3 389 393 392
3 389 392 388
3 396 395 394
3 397 396 394
3 398 396 397
3 399 394 395
3 400 399 395
3 401 399 400
3 402 397 394
3 402 394 399
3 377 378 403
3 403 378 403
3 380 403 378
3 380 404 403
3 407 406 405
3 381 404 380
3 381 408 404
3 411 410 409
3 414 413 412
3 383 382 411
3 382 415 411
3 415 410 411
3 382 416 415
3 390 416 382
3 419 418 417
3 417 418 393
3 417 398 419
3 419 398 420
3 412 413 387
3 413 401 387
3 413 421 401
3 412 387 384
3 422 415 416
3 416 390 422
3 390 423 422
3 390 391 423
3 418 392 393
3 424 392 418
3 397 426 425
3 420 397 425
3 398 397 420
3 421 425 426
3 399 421 426
3 401 421 399
3 402 426 397
3 403 427 403
3 429 407 428
3 430 407 429
3 427 403 431
3 403 432 431
3 403 404 432
3 430 433 407
3 407 433 406
3 408 432 404
3 408 434 432
3 437 436 435
3 410 438 409
3 441 440 439
3 441 439 436
3 436 439 435
3 439 413 435
3 413 414 435
3 435 414 442
3 438 410 443
3 410 444 443
3 410 415 444
3 446 445 419
3 419 445 418
3 447 439 420
3 439 446 420
3 446 419 420
3 439 440 446
3 447 421 413
3 447 413 439
3 448 444 415
3 448 415 422
3 422 423 448
3 448 423 449
3 445 424 418
3 450 424 445
3 425 447 420
3 447 425 421
3 465 462 451
3 449 465 451
3 423 465 449
3 450 451 462
3 466 450 462
3 424 450 466
3 85 430 429
3 86 430 85
3 432 452 431
3 86 90 430
3 430 90 433
3 452 432 59
3 432 91 59
3 432 434 91
3 92 95 453
3 454 91 434
3 454 96 91
3 453 95 437
3 95 436 437
3 95 97 436
3 101 104 441
3 441 104 440
3 441 436 97
3 441 97 101
3 443 444 106
3 106 444 108
3 109 112 446
3 446 112 445
3 446 440 104
3 446 104 109
3 444 448 455
3 115 444 455
3 108 444 115
3 455 448 449
3 116 117 456
3 112 116 456
3 450 112 456
3 445 112 450
3 121 115 455
3 451 456 117
3 121 451 117
3 451 455 449
3 451 121 455
3 456 451 450
3 459 458 457
3 460 459 457
3 461 459 460
3 464 463 462
3 464 462 465
3 463 467 466
3 463 466 462
3 463 468 467
3 471 470 469
3 472 470 471
3 473 472 471
3 474 472 473
3 476 471 475
3 473 471 476
3 477 474 473
3 478 474 477
3 479 473 476
3 477 473 479
3 480 478 477
3 481 478 480
3 482 477 479
3 480 477 482
3 484 479 483
3 482 479 484
3 485 481 480
3 486 481 485
3 487 480 482
3 485 480 487
3 488 482 484
3 487 482 488
3 490 484 489
3 488 484 490
3 512 486 485
3 513 486 512
3 518 485 487
3 512 485 518
3 519 487 488
3 518 487 519
3 521 488 490
3 519 488 521
3 493 492 491
3 491 492 494
3 496 495 493
3 493 495 492
3 495 496 497
3 496 498 497
3 496 499 498
3 491 500 493
3 491 501 500
3 493 502 496
3 493 500 502
3 496 503 499
3 496 502 503
3 499 505 504
3 499 503 505
3 508 507 506
3 510 509 506
3 506 509 508
3 492 506 507
3 511 492 507
3 494 492 511
3 506 492 495
3 506 495 510
3 510 495 497
3 205 208 508
3 508 208 507
3 511 507 208
3 511 208 209
3 514 513 512
3 514 512 515
3 517 516 515
3 512 517 515
3 518 517 512
3 520 518 519
3 517 518 520
3 522 519 521
3 520 519 522
3 524 521 523
3 522 521 524
3 527 526 525
3 525 526 516
3 517 525 516
3 528 525 517
3 529 517 520
3 528 517 529
3 530 520 522
3 529 520 530
3 531 522 524
3 530 522 531
3 533 524 532
3 531 524 533
3 535 534 527
3 525 535 527
3 536 535 525
3 537 525 528
3 536 525 537
3 538 528 529
3 537 528 538
3 539 529 530
3 538 529 539
3 540 530 531
3 539 530 540
3 541 531 533
3 540 531 541
3 542 535 536
3 543 535 542
3 544 538 539
3 545 538 544
3 546 539 540
3 544 539 546
3 547 540 541
3 546 540 547
3 550 549 548
3 547 550 548
3 541 550 547
3 553 552 551
3 543 553 551
3 542 553 543
3 547 555 554
3 556 547 554
3 546 547 556
3 555 547 548
3 558 557 552
3 553 558 552
3 559 558 553
3 515 560 514
3 514 560 561
3 560 515 516
3 564 563 562
3 562 565 564
3 568 567 566
3 569 567 568
3 571 566 570
3 568 566 571
3 572 569 568
3 573 569 572
3 574 568 571
3 572 568 574
3 575 573 572
3 576 573 575
3 577 572 574
3 575 572 577
3 579 578 576
3 580 578 579
3 581 576 575
3 579 576 581
3 582 575 577
3 581 575 582
3 582 577 242
3 583 580 579
3 584 580 583
3 587 579 581
3 583 579 587
3 589 581 582
3 587 581 589
3 245 582 242
3 589 582 245
3 585 584 583
3 586 584 585
3 588 583 587
3 585 583 588
3 590 587 589
3 588 587 590
3 247 589 245
3 590 589 247
3 591 586 585
3 592 586 591
3 593 585 588
3 591 585 593
3 594 588 590
3 593 588 594
3 261 590 247
3 594 590 261
3 595 592 591
3 596 592 595
3 597 591 593
3 595 591 597
3 598 593 594
3 597 593 598
3 272 594 261
3 598 594 272
3 599 596 595
3 600 596 599
3 601 595 597
3 599 595 601
3 602 597 598
3 601 597 602
3 280 598 272
3 602 598 280
3 604 603 600
3 605 603 604
3 606 600 599
3 604 600 606
3 607 599 601
3 606 599 607
3 608 601 602
3 607 601 608
3 287 602 280
3 608 602 287
3 609 605 604
3 610 605 609
3 611 604 606
3 609 604 611
3 612 606 607
3 611 606 612
3 613 607 608
3 612 607 613
3 293 608 287
3 613 608 293
3 614 610 609
3 615 610 614
3 611 617 616
3 614 611 616
3 609 611 614
3 619 618 617
3 611 619 617
3 612 619 611
3 620 612 613
3 619 612 620
3 298 613 293
3 620 613 298
3 614 621 642
3 643 614 642
3 615 614 643
3 621 614 616
3 622 618 619
3 622 619 620
3 622 620 623
3 359 645 623
3 620 359 623
3 298 359 620
3 625 624 617
3 617 624 616
3 617 618 625
3 625 618 626
3 627 651 621
3 621 651 642
3 621 616 624
3 621 624 627
3 628 626 618
3 628 618 622
3 629 622 623
3 629 628 622
3 623 645 629
3 629 645 653
3 631 630 625
3 625 630 624
3 625 626 631
3 631 626 632
3 633 657 627
3 627 657 651
3 627 624 630
3 627 630 633
3 634 632 626
3 634 626 628
3 635 628 629
3 635 634 628
3 629 653 635
3 635 653 659
3 637 636 631
3 631 636 630
3 631 632 637
3 637 632 638
3 663 657 633
3 666 663 633
3 630 666 633
3 636 666 630
3 639 638 632
3 639 632 634
3 668 639 667
3 639 635 667
3 639 634 635
3 659 667 635
3 640 636 637
3 638 640 637
3 2 640 638
3 639 2 638
3 1 2 639
3 639 668 1
3 1 668 9
3 643 642 641
3 643 641 644
3 356 645 359
3 644 647 646
3 648 644 646
3 649 644 648
3 647 644 641
3 648 646 650
3 648 650 650
3 651 641 642
3 652 641 651
3 377 653 645
3 377 645 356
3 647 641 652
3 647 652 654
3 655 650 646
3 656 650 655
3 657 652 651
3 658 652 657
3 403 659 653
3 403 653 377
3 654 652 658
3 654 658 660
3 661 656 655
3 662 656 661
3 665 664 663
3 664 657 663
3 664 658 657
3 665 663 666
3 669 668 667
3 670 669 427
3 427 669 403
3 669 667 403
3 667 659 403
3 672 671 660
3 658 672 660
3 664 672 658
3 431 670 427
3 662 674 673
3 674 675 673
3 674 676 675
3 665 11 664
3 8 9 668
3 8 668 669
3 669 670 8
3 8 670 10
3 11 672 664
3 12 672 11
3 670 431 452
3 17 670 452
3 10 670 17
3 59 17 452
